<svg width="26" height="30" fill="none" xmlns="http://www.w3.org/2000/svg"><path d="M21.071 15.854c-.014-2.46 1.1-4.312 3.35-5.679-1.258-1.803-3.162-2.794-5.672-2.985-2.376-.188-4.975 1.384-5.927 1.384-1.006 0-3.307-1.32-5.117-1.32C3.97 7.313 0 10.234 0 16.175c0 1.757.32 3.57.963 5.438.858 2.46 3.951 8.484 7.179 8.387 1.687-.04 2.88-1.197 5.076-1.197 2.131 0 3.235 1.197 5.117 1.197 3.255-.047 6.053-5.524 6.868-7.99-4.366-2.06-4.132-6.029-4.132-6.155Zm-3.79-10.997C19.11 2.687 18.945.71 18.89 0c-1.615.094-3.483 1.1-4.547 2.336-1.172 1.327-1.86 2.968-1.713 4.818 1.746.133 3.34-.765 4.652-2.297Z" fill="#1F1F1F"/></svg>